<svg xmlns="http://www.w3.org/2000/svg" xmlns:xlink="http://www.w3.org/1999/xlink" width="1080" zoomAndPan="magnify" viewBox="0 0 810 1236.749941" height="1649" preserveAspectRatio="xMidYMid meet" version="1.0"><defs><g/><clipPath id="77205cb5f7"><path d="M 0.0820312 0 L 809.917969 0 L 809.917969 1236.5 L 0.0820312 1236.5 Z M 0.0820312 0 " clip-rule="nonzero"/></clipPath><clipPath id="98f0723949"><path d="M 18.828125 0 L 791.171875 0 C 796.144531 0 800.910156 1.976562 804.425781 5.492188 C 807.941406 9.007812 809.917969 13.773438 809.917969 18.746094 L 809.917969 1217.753906 C 809.917969 1222.726562 807.941406 1227.492188 804.425781 1231.007812 C 800.910156 1234.523438 796.144531 1236.5 791.171875 1236.5 L 18.828125 1236.5 C 13.855469 1236.5 9.089844 1234.523438 5.574219 1231.007812 C 2.058594 1227.492188 0.0820312 1222.726562 0.0820312 1217.753906 L 0.0820312 18.746094 C 0.0820312 13.773438 2.058594 9.007812 5.574219 5.492188 C 9.089844 1.976562 13.855469 0 18.828125 0 Z M 18.828125 0 " clip-rule="nonzero"/></clipPath><clipPath id="a025cfb3f3"><path d="M 0.0820312 0 L 809.917969 0 L 809.917969 1236.5 L 0.0820312 1236.5 Z M 0.0820312 0 " clip-rule="nonzero"/></clipPath><clipPath id="6bf12d892e"><path d="M 18.828125 0 L 791.171875 0 C 796.144531 0 800.910156 1.976562 804.425781 5.492188 C 807.941406 9.007812 809.917969 13.773438 809.917969 18.746094 L 809.917969 1217.753906 C 809.917969 1222.726562 807.941406 1227.492188 804.425781 1231.007812 C 800.910156 1234.523438 796.144531 1236.5 791.171875 1236.5 L 18.828125 1236.5 C 13.855469 1236.5 9.089844 1234.523438 5.574219 1231.007812 C 2.058594 1227.492188 0.0820312 1222.726562 0.0820312 1217.753906 L 0.0820312 18.746094 C 0.0820312 13.773438 2.058594 9.007812 5.574219 5.492188 C 9.089844 1.976562 13.855469 0 18.828125 0 Z M 18.828125 0 " clip-rule="nonzero"/></clipPath><clipPath id="591b6e65f6"><rect x="0" width="810" y="0" height="1237"/></clipPath><clipPath id="9b8ff67a75"><path d="M 154.414062 173.925781 L 655.585938 173.925781 L 655.585938 1062.71875 L 154.414062 1062.71875 Z M 154.414062 173.925781 " clip-rule="nonzero"/></clipPath><clipPath id="1c59fe7692"><path d="M 173.160156 173.925781 L 636.839844 173.925781 C 641.808594 173.925781 646.578125 175.902344 650.09375 179.417969 C 653.609375 182.933594 655.585938 187.699219 655.585938 192.671875 L 655.585938 1043.828125 C 655.585938 1048.800781 653.609375 1053.566406 650.09375 1057.082031 C 646.578125 1060.597656 641.808594 1062.574219 636.839844 1062.574219 L 173.160156 1062.574219 C 168.191406 1062.574219 163.421875 1060.597656 159.90625 1057.082031 C 156.390625 1053.566406 154.414062 1048.800781 154.414062 1043.828125 L 154.414062 192.671875 C 154.414062 187.699219 156.390625 182.933594 159.90625 179.417969 C 163.421875 175.902344 168.191406 173.925781 173.160156 173.925781 Z M 173.160156 173.925781 " clip-rule="nonzero"/></clipPath><clipPath id="e87e4ba669"><path d="M 0.414062 0.925781 L 501.585938 0.925781 L 501.585938 889.71875 L 0.414062 889.71875 Z M 0.414062 0.925781 " clip-rule="nonzero"/></clipPath><clipPath id="7479dc6269"><path d="M 19.160156 0.925781 L 482.839844 0.925781 C 487.808594 0.925781 492.578125 2.902344 496.09375 6.417969 C 499.609375 9.933594 501.585938 14.699219 501.585938 19.671875 L 501.585938 870.828125 C 501.585938 875.800781 499.609375 880.566406 496.09375 884.082031 C 492.578125 887.597656 487.808594 889.574219 482.839844 889.574219 L 19.160156 889.574219 C 14.191406 889.574219 9.421875 887.597656 5.90625 884.082031 C 2.390625 880.566406 0.414062 875.800781 0.414062 870.828125 L 0.414062 19.671875 C 0.414062 14.699219 2.390625 9.933594 5.90625 6.417969 C 9.421875 2.902344 14.191406 0.925781 19.160156 0.925781 Z M 19.160156 0.925781 " clip-rule="nonzero"/></clipPath><clipPath id="5a4c2c5ab2"><rect x="0" width="502" y="0" height="890"/></clipPath><clipPath id="d3a080cefc"><path d="M 154.417969 173.925781 L 655.3125 173.925781 L 655.3125 1062.496094 L 154.417969 1062.496094 Z M 154.417969 173.925781 " clip-rule="nonzero"/></clipPath><clipPath id="cbf5cb89ad"><path d="M 173.164062 173.925781 L 636.835938 173.925781 C 641.808594 173.925781 646.578125 175.902344 650.089844 179.417969 C 653.605469 182.933594 655.582031 187.699219 655.582031 192.671875 L 655.582031 1043.820312 C 655.582031 1048.792969 653.605469 1053.5625 650.089844 1057.078125 C 646.578125 1060.59375 641.808594 1062.566406 636.835938 1062.566406 L 173.164062 1062.566406 C 168.191406 1062.566406 163.421875 1060.59375 159.90625 1057.078125 C 156.390625 1053.5625 154.417969 1048.792969 154.417969 1043.820312 L 154.417969 192.671875 C 154.417969 187.699219 156.390625 182.933594 159.90625 179.417969 C 163.421875 175.902344 168.191406 173.925781 173.164062 173.925781 Z M 173.164062 173.925781 " clip-rule="nonzero"/></clipPath><clipPath id="f635c0903e"><path d="M 2 9 L 21.941406 9 L 21.941406 32 L 2 32 Z M 2 9 " clip-rule="nonzero"/></clipPath><clipPath id="1470ac2b47"><rect x="0" width="22" y="0" height="44"/></clipPath><clipPath id="88458cd035"><path d="M 89.59375 110.585938 L 111.753906 110.585938 L 111.753906 132.011719 L 89.59375 132.011719 Z M 89.59375 110.585938 " clip-rule="nonzero"/></clipPath><clipPath id="c359d958a9"><path d="M 0.59375 0.585938 L 22.753906 0.585938 L 22.753906 22.011719 L 0.59375 22.011719 Z M 0.59375 0.585938 " clip-rule="nonzero"/></clipPath><clipPath id="45c32d4bd9"><rect x="0" width="23" y="0" height="23"/></clipPath><clipPath id="44225a9eb9"><path d="M 2 15 L 47.855469 15 L 47.855469 56 L 2 56 Z M 2 15 " clip-rule="nonzero"/></clipPath><clipPath id="3fdc0e87b5"><rect x="0" width="48" y="0" height="76"/></clipPath><clipPath id="8526d2591a"><rect x="0" width="47" y="0" height="76"/></clipPath><clipPath id="a47ccda04c"><path d="M 50 175.71875 L 112 175.71875 L 112 242.453125 L 50 242.453125 Z M 50 175.71875 " clip-rule="nonzero"/></clipPath><clipPath id="bf2090c174"><path d="M 0.0585938 12 L 20 12 L 20 36 L 0.0585938 36 Z M 0.0585938 12 " clip-rule="nonzero"/></clipPath><clipPath id="4a6de580c8"><rect x="0" width="22" y="0" height="44"/></clipPath><clipPath id="1e8a19f4d2"><path d="M 698.238281 1104.480469 L 720.398438 1104.480469 L 720.398438 1125.910156 L 698.238281 1125.910156 Z M 698.238281 1104.480469 " clip-rule="nonzero"/></clipPath><clipPath id="b3fce2d6a0"><path d="M 0.238281 0.480469 L 22.398438 0.480469 L 22.398438 21.910156 L 0.238281 21.910156 Z M 0.238281 0.480469 " clip-rule="nonzero"/></clipPath><clipPath id="eab29fc9f9"><rect x="0" width="23" y="0" height="22"/></clipPath><clipPath id="17ad22a3c0"><path d="M 0.144531 20 L 46 20 L 46 62 L 0.144531 62 Z M 0.144531 20 " clip-rule="nonzero"/></clipPath><clipPath id="6cfcab9ad6"><rect x="0" width="48" y="0" height="76"/></clipPath><clipPath id="dc2b25f246"><rect x="0" width="47" y="0" height="76"/></clipPath><clipPath id="8466768362"><path d="M 698 994.039062 L 760 994.039062 L 760 1060.777344 L 698 1060.777344 Z M 698 994.039062 " clip-rule="nonzero"/></clipPath></defs><g clip-path="url(#77205cb5f7)"><g clip-path="url(#98f0723949)"><g transform="matrix(1, 0, 0, 1, 0.000000000000000014, -0.000000000000041025)"><g clip-path="url(#591b6e65f6)"><g clip-path="url(#a025cfb3f3)"><g clip-path="url(#6bf12d892e)"><path fill="#faf8f4" d="M 0.0820312 0 L 809.917969 0 L 809.917969 1236.898438 L 0.0820312 1236.898438 Z M 0.0820312 0 " fill-opacity="1" fill-rule="nonzero"/></g></g></g></g></g></g><g clip-path="url(#9b8ff67a75)"><g clip-path="url(#1c59fe7692)"><g transform="matrix(1, 0, 0, 1, 154, 173)"><g clip-path="url(#5a4c2c5ab2)"><g clip-path="url(#e87e4ba669)"><g clip-path="url(#7479dc6269)"><path fill="#f3f0e9" d="M 0.414062 0.925781 L 501.585938 0.925781 L 501.585938 889.71875 L 0.414062 889.71875 Z M 0.414062 0.925781 " fill-opacity="1" fill-rule="nonzero"/></g></g></g></g></g></g><g clip-path="url(#d3a080cefc)"><g clip-path="url(#cbf5cb89ad)"><path stroke-linecap="butt" transform="matrix(0.749848, 0, 0, 0.749848, 154.416509, 173.926647)" fill="none" stroke-linejoin="miter" d="M 25.001792 -0.00115391 L 643.355945 -0.00115391 C 649.987493 -0.00115391 656.348154 2.634796 661.036602 7.323243 C 665.71984 12.011691 668.355789 18.367142 668.355789 24.998691 L 668.355789 1160.092707 C 668.355789 1166.724256 665.71984 1173.084917 661.036602 1177.773364 C 656.348154 1182.461812 649.987493 1185.092552 643.355945 1185.092552 L 25.001792 1185.092552 C 18.370243 1185.092552 12.009583 1182.461812 7.321135 1177.773364 C 2.632687 1173.084917 0.00194717 1166.724256 0.00194717 1160.092707 L 0.00194717 24.998691 C 0.00194717 18.367142 2.632687 12.011691 7.321135 7.323243 C 12.009583 2.634796 18.370243 -0.00115391 25.001792 -0.00115391 Z M 25.001792 -0.00115391 " stroke="#1a3a2e" stroke-width="8" stroke-opacity="1" stroke-miterlimit="4"/></g></g><g transform="matrix(1, 0, 0, 1, 71, 103)"><g clip-path="url(#1470ac2b47)"><g clip-path="url(#f635c0903e)"><g fill="#1a3a2e" fill-opacity="1"><g transform="translate(0.414124, 31.560448)"><g><path d="M 8.4375 -0.3125 L 8.859375 -0.3125 L 8.859375 0 L 1.90625 0 L 1.90625 -0.3125 L 2.3125 -0.3125 C 2.863281 -0.3125 3.332031 -0.503906 3.71875 -0.890625 C 4.113281 -1.285156 4.320312 -1.757812 4.34375 -2.3125 L 4.34375 -19.921875 C 4.320312 -20.472656 4.113281 -20.9375 3.71875 -21.3125 C 3.332031 -21.695312 2.863281 -21.890625 2.3125 -21.890625 L 1.90625 -21.890625 L 1.90625 -22.21875 L 8.859375 -22.21875 L 8.859375 -21.890625 L 8.4375 -21.890625 C 7.882812 -21.890625 7.410156 -21.695312 7.015625 -21.3125 C 6.628906 -20.9375 6.425781 -20.472656 6.40625 -19.921875 L 6.40625 -2.3125 C 6.40625 -1.757812 6.601562 -1.285156 7 -0.890625 C 7.40625 -0.503906 7.882812 -0.3125 8.4375 -0.3125 Z M 21.203125 0 L 19.828125 0 C 17.671875 0 16.085938 -0.601562 15.078125 -1.8125 L 7.421875 -11.046875 L 14.921875 -20.4375 C 15.085938 -20.644531 15.171875 -20.832031 15.171875 -21 C 15.171875 -21.175781 15.140625 -21.328125 15.078125 -21.453125 C 14.898438 -21.765625 14.59375 -21.921875 14.15625 -21.921875 L 13.84375 -21.921875 L 13.84375 -22.21875 L 20.53125 -22.21875 L 20.53125 -21.921875 L 20.40625 -21.921875 C 19.007812 -21.921875 17.867188 -21.425781 16.984375 -20.4375 L 9.515625 -11.8125 L 18.1875 -1.625 C 19.03125 -0.769531 20.035156 -0.332031 21.203125 -0.3125 Z M 21.203125 0 "/></g></g></g></g></g></g><g clip-path="url(#88458cd035)"><g transform="matrix(1, 0, 0, 1, 89, 110)"><g clip-path="url(#45c32d4bd9)"><g clip-path="url(#c359d958a9)"><path fill="#faf8f4" d="M 0.59375 22.011719 L 0.59375 0.585938 L 22.773438 0.585938 L 22.773438 22.011719 Z M 0.59375 22.011719 " fill-opacity="1" fill-rule="nonzero"/></g></g></g></g><g transform="matrix(1, 0, 0, 1, 83, 97)"><g clip-path="url(#3fdc0e87b5)"><g clip-path="url(#44225a9eb9)"><g fill="#1a3a2e" fill-opacity="1"><g transform="translate(0.817422, 54.777769)"><g><path d="M 45.40625 -38.34375 C 44.113281 -38.34375 43.132812 -37.789062 42.46875 -36.6875 C 42.164062 -36.195312 42 -35.640625 41.96875 -35.015625 L 41.96875 -6.328125 C 41.96875 -3.847656 42.132812 -1.757812 42.46875 -0.0625 L 42.625 0.78125 L 42.125 0.78125 L 14.0625 -25.953125 L 14.0625 -3.890625 C 14.0625 -2.960938 14.394531 -2.175781 15.0625 -1.53125 C 15.726562 -0.882812 16.523438 -0.5625 17.453125 -0.5625 L 18.5 -0.5625 L 18.5 0 L 1.671875 0 L 1.671875 -0.5625 L 2.671875 -0.5625 C 3.628906 -0.5625 4.441406 -0.882812 5.109375 -1.53125 C 5.773438 -2.175781 6.109375 -2.984375 6.109375 -3.953125 L 6.109375 -32.796875 C 6.109375 -35.234375 5.941406 -37.269531 5.609375 -38.90625 L 5.5 -39.734375 L 6 -39.734375 L 34.0625 -13 L 34.0625 -34.953125 C 34.03125 -35.921875 33.679688 -36.726562 33.015625 -37.375 C 32.347656 -38.019531 31.550781 -38.34375 30.625 -38.34375 L 29.625 -38.34375 L 29.625 -38.90625 L 46.46875 -38.90625 L 46.46875 -38.34375 Z M 45.40625 -38.34375 "/></g></g></g></g></g></g><g transform="matrix(1, 0, 0, 1, 30, 76)"><g clip-path="url(#8526d2591a)"><g fill="#1a3a2e" fill-opacity="1"><g transform="translate(0.24105, 54.76723)"><g><path d="M 23.515625 0.78125 C 17.171875 0.78125 12.082031 -1.039062 8.25 -4.6875 C 4.414062 -8.34375 2.5 -13.273438 2.5 -19.484375 C 2.5 -25.691406 4.414062 -30.609375 8.25 -34.234375 C 12.082031 -37.867188 17.28125 -39.6875 23.84375 -39.6875 C 26.8125 -39.6875 29.679688 -39.394531 32.453125 -38.8125 C 35.234375 -38.238281 37.476562 -37.53125 39.1875 -36.6875 L 39.296875 -27.125 L 38.796875 -27.125 C 37.828125 -30.71875 36.175781 -33.316406 33.84375 -34.921875 C 31.507812 -36.535156 28.734375 -37.34375 25.515625 -37.34375 C 21.023438 -37.34375 17.578125 -35.738281 15.171875 -32.53125 C 12.765625 -29.332031 11.5625 -24.941406 11.5625 -19.359375 C 11.5625 -13.785156 12.660156 -9.425781 14.859375 -6.28125 C 17.066406 -3.132812 20.191406 -1.5625 24.234375 -1.5625 C 27.160156 -1.5625 29.601562 -2.394531 31.5625 -4.0625 C 32.53125 -4.90625 33.238281 -5.90625 33.6875 -7.0625 L 33.6875 -15.5625 C 33.6875 -16.375 33.4375 -16.992188 32.9375 -17.421875 C 32.4375 -17.847656 31.722656 -18.0625 30.796875 -18.0625 L 29.90625 -18.0625 L 29.90625 -18.625 L 45.515625 -18.625 L 45.515625 -18.0625 L 44.6875 -18.0625 C 43.789062 -18.0625 43.101562 -17.847656 42.625 -17.421875 C 42.144531 -16.992188 41.90625 -16.375 41.90625 -15.5625 L 41.90625 -6.390625 C 40.457031 -4.503906 38.066406 -2.835938 34.734375 -1.390625 C 31.398438 0.0546875 27.660156 0.78125 23.515625 0.78125 Z M 23.515625 0.78125 "/></g></g></g></g></g><path stroke-linecap="butt" transform="matrix(0.749848, 0, 0, 0.749848, 60.116206, 112.056315)" fill="none" stroke-linejoin="miter" d="M 0.00130948 0.49793 L 26.959885 0.49793 " stroke="#000000" stroke-width="1" stroke-opacity="1" stroke-miterlimit="4"/><path stroke-linecap="butt" transform="matrix(0.749848, 0.000000000000003698, -0.000000000000003698, 0.749848, 85.27338, 112.056315)" fill="none" stroke-linejoin="miter" d="M 0.0000761377 0.49793 L 5.761658 0.49793 " stroke="#000000" stroke-width="1" stroke-opacity="1" stroke-miterlimit="4"/><g clip-path="url(#a47ccda04c)"><path fill="#1a3a2e" d="M 105.738281 200.433594 L 81.058594 175.75 L 55.800781 201.007812 C 48.984375 207.820312 48.984375 218.871094 55.800781 225.6875 C 59.210938 229.09375 63.675781 230.796875 68.140625 230.796875 C 72.433594 230.796875 76.730469 229.222656 80.082031 226.074219 C 78.917969 235.90625 72.074219 242.617188 72.074219 242.617188 L 90.039062 242.617188 C 90.039062 242.617188 83.195312 235.90625 82.03125 226.074219 C 85.386719 229.222656 89.679688 230.796875 93.972656 230.796875 C 98.4375 230.796875 102.90625 229.09375 106.3125 225.6875 C 113.128906 218.871094 113.128906 207.820312 106.3125 201.007812 L 105.738281 200.433594 " fill-opacity="1" fill-rule="nonzero"/></g><g transform="matrix(1, 0, 0, 1, 717, 1089)"><g clip-path="url(#4a6de580c8)"><g clip-path="url(#bf2090c174)"><g fill="#1a3a2e" fill-opacity="1"><g transform="translate(21.585197, 12.938632)"><g><path d="M -8.4375 0.3125 L -8.859375 0.3125 L -8.859375 0 L -1.90625 0 L -1.90625 0.3125 L -2.3125 0.3125 C -2.863281 0.3125 -3.332031 0.503906 -3.71875 0.890625 C -4.113281 1.285156 -4.320312 1.757812 -4.34375 2.3125 L -4.34375 19.921875 C -4.320312 20.472656 -4.113281 20.9375 -3.71875 21.3125 C -3.332031 21.695312 -2.863281 21.890625 -2.3125 21.890625 L -1.90625 21.890625 L -1.90625 22.21875 L -8.859375 22.21875 L -8.859375 21.890625 L -8.4375 21.890625 C -7.882812 21.890625 -7.410156 21.695312 -7.015625 21.3125 C -6.628906 20.9375 -6.425781 20.472656 -6.40625 19.921875 L -6.40625 2.3125 C -6.40625 1.757812 -6.601562 1.285156 -7 0.890625 C -7.40625 0.503906 -7.882812 0.3125 -8.4375 0.3125 Z M -21.203125 0 L -19.828125 0 C -17.671875 0 -16.085938 0.601562 -15.078125 1.8125 L -7.421875 11.046875 L -14.921875 20.4375 C -15.085938 20.644531 -15.171875 20.832031 -15.171875 21 C -15.171875 21.175781 -15.140625 21.328125 -15.078125 21.453125 C -14.898438 21.765625 -14.59375 21.921875 -14.15625 21.921875 L -13.84375 21.921875 L -13.84375 22.21875 L -20.53125 22.21875 L -20.53125 21.921875 L -20.40625 21.921875 C -19.007812 21.921875 -17.867188 21.425781 -16.984375 20.4375 L -9.515625 11.8125 L -18.1875 1.625 C -19.03125 0.769531 -20.035156 0.332031 -21.203125 0.3125 Z M -21.203125 0 "/></g></g></g></g></g></g><g clip-path="url(#1e8a19f4d2)"><g transform="matrix(1, 0, 0, 1, 698, 1104)"><g clip-path="url(#eab29fc9f9)"><g clip-path="url(#b3fce2d6a0)"><path fill="#faf8f4" d="M 22.398438 0.480469 L 22.398438 21.910156 L 0.214844 21.910156 L 0.214844 0.480469 Z M 22.398438 0.480469 " fill-opacity="1" fill-rule="nonzero"/></g></g></g></g><g transform="matrix(1, 0, 0, 1, 679, 1063)"><g clip-path="url(#6cfcab9ad6)"><g clip-path="url(#17ad22a3c0)"><g fill="#1a3a2e" fill-opacity="1"><g transform="translate(47.182412, 21.711264)"><g><path d="M -45.40625 38.34375 C -44.113281 38.34375 -43.132812 37.789062 -42.46875 36.6875 C -42.164062 36.195312 -42 35.640625 -41.96875 35.015625 L -41.96875 6.328125 C -41.96875 3.847656 -42.132812 1.757812 -42.46875 0.0625 L -42.625 -0.78125 L -42.125 -0.78125 L -14.0625 25.953125 L -14.0625 3.890625 C -14.0625 2.960938 -14.394531 2.175781 -15.0625 1.53125 C -15.726562 0.882812 -16.523438 0.5625 -17.453125 0.5625 L -18.5 0.5625 L -18.5 0 L -1.671875 0 L -1.671875 0.5625 L -2.671875 0.5625 C -3.628906 0.5625 -4.441406 0.882812 -5.109375 1.53125 C -5.773438 2.175781 -6.109375 2.984375 -6.109375 3.953125 L -6.109375 32.796875 C -6.109375 35.234375 -5.941406 37.269531 -5.609375 38.90625 L -5.5 39.734375 L -6 39.734375 L -34.0625 13 L -34.0625 34.953125 C -34.03125 35.921875 -33.679688 36.726562 -33.015625 37.375 C -32.347656 38.019531 -31.550781 38.34375 -30.625 38.34375 L -29.625 38.34375 L -29.625 38.90625 L -46.46875 38.90625 L -46.46875 38.34375 Z M -45.40625 38.34375 "/></g></g></g></g></g></g><g transform="matrix(1, 0, 0, 1, 733, 1084)"><g clip-path="url(#dc2b25f246)"><g fill="#1a3a2e" fill-opacity="1"><g transform="translate(46.754744, 21.72178)"><g><path d="M -23.515625 -0.78125 C -17.171875 -0.78125 -12.082031 1.039062 -8.25 4.6875 C -4.414062 8.34375 -2.5 13.273438 -2.5 19.484375 C -2.5 25.691406 -4.414062 30.609375 -8.25 34.234375 C -12.082031 37.867188 -17.28125 39.6875 -23.84375 39.6875 C -26.8125 39.6875 -29.679688 39.394531 -32.453125 38.8125 C -35.234375 38.238281 -37.476562 37.53125 -39.1875 36.6875 L -39.296875 27.125 L -38.796875 27.125 C -37.828125 30.71875 -36.175781 33.316406 -33.84375 34.921875 C -31.507812 36.535156 -28.734375 37.34375 -25.515625 37.34375 C -21.023438 37.34375 -17.578125 35.738281 -15.171875 32.53125 C -12.765625 29.332031 -11.5625 24.941406 -11.5625 19.359375 C -11.5625 13.785156 -12.660156 9.425781 -14.859375 6.28125 C -17.066406 3.132812 -20.191406 1.5625 -24.234375 1.5625 C -27.160156 1.5625 -29.601562 2.394531 -31.5625 4.0625 C -32.53125 4.90625 -33.238281 5.90625 -33.6875 7.0625 L -33.6875 15.5625 C -33.6875 16.375 -33.4375 16.992188 -32.9375 17.421875 C -32.4375 17.847656 -31.722656 18.0625 -30.796875 18.0625 L -29.90625 18.0625 L -29.90625 18.625 L -45.515625 18.625 L -45.515625 18.0625 L -44.6875 18.0625 C -43.789062 18.0625 -43.101562 17.847656 -42.625 17.421875 C -42.144531 16.992188 -41.90625 16.375 -41.90625 15.5625 L -41.90625 6.390625 C -40.457031 4.503906 -38.066406 2.835938 -34.734375 1.390625 C -31.398438 -0.0546875 -27.660156 -0.78125 -23.515625 -0.78125 Z M -23.515625 -0.78125 "/></g></g></g></g></g><path stroke-linecap="butt" transform="matrix(-0.749848, 0, 0, -0.749848, 749.880557, 1124.443518)" fill="none" stroke-linejoin="miter" d="M 0.00220187 0.497708 L 26.955568 0.497708 " stroke="#000000" stroke-width="1" stroke-opacity="1" stroke-miterlimit="4"/><path stroke-linecap="butt" transform="matrix(-0.749848, 0, 0, -0.749848, 724.716462, 1124.443518)" fill="none" stroke-linejoin="miter" d="M 0.0021585 0.497708 L 5.76374 0.497708 " stroke="#000000" stroke-width="1" stroke-opacity="1" stroke-miterlimit="4"/><g clip-path="url(#8466768362)"><path fill="#1a3a2e" d="M 704.257812 1036.0625 L 728.9375 1060.742188 L 754.191406 1035.488281 C 761.007812 1028.671875 761.007812 1017.621094 754.191406 1010.804688 C 750.785156 1007.398438 746.320312 1005.695312 741.851562 1005.695312 C 737.558594 1005.695312 733.265625 1007.269531 729.914062 1010.417969 C 731.078125 1000.589844 737.921875 993.875 737.921875 993.875 L 719.953125 993.875 C 719.953125 993.875 726.800781 1000.589844 727.960938 1010.417969 C 724.609375 1007.269531 720.316406 1005.695312 716.023438 1005.695312 C 711.554688 1005.695312 707.089844 1007.398438 703.683594 1010.804688 C 696.867188 1017.621094 696.867188 1028.671875 703.683594 1035.488281 L 704.257812 1036.0625 " fill-opacity="1" fill-rule="nonzero"/></g></svg>